PathFileType	4	(X/Y/Z)	pose_F01_0-96.trc
DataRate	CameraRate	NumFrames	NumMarkers	Units	OrigDataRate	OrigDataStartFrame	OrigNumFrames
30	30	7	21	m	30	0	96
Frame#	Time	CHip			RHip			RKnee			RAnkle			RBigToe			RSmallToe			RHeel			LHip			LKnee			LAnkle			LBigToe			LSmallToe			LHeel			Neck			Nose			RShoulder			RElbow			RWrist			LShoulder			LElbow			LWrist			
		X1	Y1	Z1	X2	Y2	Z2	X3	Y3	Z3	X4	Y4	Z4	X5	Y5	Z5	X6	Y6	Z6	X7	Y7	Z7	X8	Y8	Z8	X9	Y9	Z9	X10	Y10	Z10	X11	Y11	Z11	X12	Y12	Z12	X13	Y13	Z13	X14	Y14	Z14	X15	Y15	Z15	X16	Y16	Z16	X17	Y17	Z17	X18	Y18	Z18	X19	Y19	Z19	X20	Y20	Z20	X21	Y21	Z21	
0	0.0	-0.17790510790729613	1.8238193031502705	-0.48928349574933805	-0.20073045849161417	1.8218132859915768	-0.46774471765555703	-0.2382023378280117	1.6891169977412013	-0.4106653960470399	-0.19576647813250758	1.5668202796884223	-0.4808102212232399	-0.21693377685272355	1.5411136874515081	-0.5315826839415424	-0.21845131438542736	1.540892322252101	-0.5043554938767777	-0.1892161466537207	1.5595005159515212	-0.4867546339626329	-0.18334010799736178	1.8246121389505514	-0.5907972721611837	-0.16466037998070504	1.6843692492939029	-0.6019342384452978	-0.14016222647671786	1.5537931445287496	-0.6360713752559346	-0.23174402649546666	1.5464954456013966	-0.6006327953769933	-0.20756307414284272	1.5205812927914406	-0.6789178964195045	-0.11445424510106636	1.5297383235676925	-0.5938420484241712	-1.7748694180816331	1.887485418647821	1.2163336471219568	-0.2698704171746322	2.062592178401142	-0.6417784690320041	-1.9273129328051444	1.907221948768146	1.488754175574728	-0.28764827012395977	1.9814145540365122	-0.503779389405731	-0.2982544390375249	1.9847079407954933	-0.6471826002135419	-1.6167714078486857	1.8882717264412525	0.9435084315594318	-0.14389349567939513	1.9053047690404874	-0.7176317483350533	-1.124725847439671	1.7034367024308517	0.2499796804781002
1	0.03333333333333333	-0.18082233059721636	1.8238858334266659	-0.4901793964176867	-0.2027476926201136	1.8217824016728161	-0.46556631541031895	-0.2382023378280117	1.6891169977412013	-0.4106653960470399	-0.19576647813250758	1.5668202796884223	-0.4808102212232399	-0.21693377685272355	1.5411136874515081	-0.5315826839415424	-0.21845131438542736	1.540892322252101	-0.5043554938767777	-0.1892161466537207	1.5595005159515212	-0.4867546339626329	-0.18510561652544702	1.8246622446685703	-0.5887030966299088	-0.1689497811358125	1.6852985577679112	-0.5970840919650211	-0.14503712694655735	1.5541555823281792	-0.6264961355122015	-0.2326117578619354	1.5446254307232823	-0.5962497293117242	-0.20942391202692148	1.5212224761921649	-0.6690033049256828	-0.12062036941755411	1.5311969348629277	-0.587916399880239	-1.766738256476764	1.8894342427576345	1.2010395339874342	-0.26810925473321545	2.0609784017921484	-0.6356801974239461	-1.9161456774468901	1.9050305847218354	1.468746636045973	-0.282032683550778	1.9744820645008176	-0.4945943123497709	-0.2955301557556799	1.9804135493823902	-0.6308240441630615	-1.607991464052673	1.8898852995083977	0.9281037867946502	-0.15018933727409542	1.9061192043679553	-0.7108312186492062	-1.157149606095259	1.7206796884995725	0.28964151293707974
2	0.06666666666666667	-0.1837395532871366	1.8239523637030612	-0.49107529708603537	-0.20476492674861305	1.8217515173540555	-0.4633879131650809	-0.2382023378280117	1.6891169977412013	-0.4106653960470399	-0.19576647813250758	1.5668202796884223	-0.4808102212232399	-0.21693377685272355	1.5411136874515081	-0.5315826839415424	-0.21845131438542736	1.540892322252101	-0.5043554938767777	-0.1892161466537207	1.5595005159515212	-0.4867546339626329	-0.18687112505353226	1.8247123503865892	-0.5866089210986339	-0.17323918229091995	1.6862278662419194	-0.5922339454847444	-0.14991202741639684	1.5545180201276088	-0.6169208957684684	-0.2334794892284041	1.542755415845168	-0.591866663246455	-0.21128474991100024	1.5218636595928892	-0.6590887134318612	-0.12678649373404186	1.532655546158163	-0.5819907513363068	-1.7586070948718948	1.891383066867448	1.1857454208529117	-0.2663480922917987	2.059364625183155	-0.6295819258158881	-1.9049784220886359	1.9028392206755247	1.4487390965172182	-0.2764170969775962	1.967549574965123	-0.4854092352938108	-0.29280587247383494	1.9761191579692872	-0.6144654881125808	-1.5992115202566601	1.8914988725755428	0.9126991420298687	-0.1564851788687957	1.9069336396954233	-0.7040306889633591	-1.189573364750847	1.7379226745682934	0.32930334539605927
3	0.1	-0.18665677597705682	1.8240188939794566	-0.491971197754384	-0.2067821608771125	1.8217206330352949	-0.4612095109198428	-0.2382023378280117	1.6891169977412013	-0.4106653960470399	-0.19576647813250758	1.5668202796884223	-0.4808102212232399	-0.21693377685272355	1.5411136874515081	-0.5315826839415424	-0.21845131438542736	1.540892322252101	-0.5043554938767777	-0.1892161466537207	1.5595005159515212	-0.4867546339626329	-0.1886366335816175	1.824762456104608	-0.584514745567359	-0.1775285834460274	1.6871571747159277	-0.5873837990044677	-0.15478692788623633	1.5548804579270383	-0.6073456560247353	-0.23434722059487284	1.5408854009670536	-0.5874835971811858	-0.213145587795079	1.5225048429936134	-0.6491741219380395	-0.1329526180505296	1.5341141574533983	-0.5760651027923747	-1.7577280092576337	1.8914430448327895	1.1846361267563494	-0.26458692985038185	2.0577508485741616	-0.6234836542078301	-1.8938111667303816	1.900647856629214	1.4287315569884633	-0.2708015104044144	1.9606170854294285	-0.4762241582378507	-0.29008158919198995	1.971824766556184	-0.5981069320621004	-1.5963689187283046	1.891597588619117	0.9097014168153646	-0.162781020463496	1.9077480750228912	-0.697230159277512	-1.2219971234064353	1.7551656606370143	0.3689651778550388
4	0.13333333333333333	-0.18957399866697705	1.824085424255852	-0.4928670984227327	-0.20879939500561193	1.8216897487165342	-0.4590311086746047	-0.2382023378280117	1.6891169977412013	-0.4106653960470399	-0.19576647813250758	1.5668202796884223	-0.4808102212232399	-0.21693377685272355	1.5411136874515081	-0.5315826839415424	-0.21845131438542736	1.540892322252101	-0.5043554938767777	-0.1892161466537207	1.5595005159515212	-0.4867546339626329	-0.19040214210970274	1.824812561822627	-0.5824205700360842	-0.18181798460113485	1.688086483189936	-0.582533652524191	-0.1596618283560758	1.555242895726468	-0.5977704162810022	-0.23521495196134157	1.5390153860889393	-0.5831005311159166	-0.21500642567915776	1.5231460263943377	-0.6392595304442178	-0.13911874236701735	1.5355727687486336	-0.5701394542484425	-1.730162952659313	1.8910890925298591	1.134238838497715	-0.262825767408965	2.056137071965168	-0.6173853825997722	-1.8826439113721274	1.8984564925829033	1.4087240174597084	-0.26518592383123263	1.9536845958937339	-0.4670390811818906	-0.28735730591014497	1.967530375143081	-0.5817483760116198	-1.5782404105274477	1.8911660702948654	0.8779118826026023	-0.16907686205819628	1.9085625103503592	-0.6904296295916649	-1.2544208820620235	1.7724086467057352	0.4086270103140183
5	0.16666666666666666	-0.19249122135689728	1.8241519545322473	-0.49376299909108134	-0.21081662913411137	1.8216588643977736	-0.45685270642936665	-0.2382023378280117	1.6891169977412013	-0.4106653960470399	-0.19576647813250758	1.5668202796884223	-0.4808102212232399	-0.21693377685272355	1.5411136874515081	-0.5315826839415424	-0.21845131438542736	1.540892322252101	-0.5043554938767777	-0.1892161466537207	1.5595005159515212	-0.4867546339626329	-0.19216765063778798	1.8248626675406459	-0.5803263945048093	-0.1861073857562423	1.6890157916639443	-0.5776835060439143	-0.1645367288259153	1.5556053335258975	-0.5881951765372692	-0.2360826833278103	1.537145371210825	-0.5787174650506475	-0.21686726356323652	1.523787209795062	-0.6293449389503961	-0.1452848666835051	1.5370313800438689	-0.5642138057045103	-1.720263238076849	1.8911024308249884	1.1167080804463203	-0.26106460496754824	2.0545232953561747	-0.6112871109917142	-1.8714766560138731	1.8962651285365926	1.3887164779309535	-0.25957033725805084	1.9467521063580393	-0.45785400412593047	-0.2846330226283	1.963235983729978	-0.5653898199611394	-1.5745459417472618	1.8897125904474903	0.8732496624402448	-0.17537270365289656	1.9093769456778271	-0.6836290999058178	-1.2868446407176115	1.789651632774456	0.44828884277299785
6	0.2	-0.1954084440468175	1.8242184848086427	-0.49465889975943	-0.2128338632626108	1.821627980079013	-0.4546743041841286	-0.2382023378280117	1.6891169977412013	-0.4106653960470399	-0.19576647813250758	1.5668202796884223	-0.4808102212232399	-0.21693377685272355	1.5411136874515081	-0.5315826839415424	-0.21845131438542736	1.540892322252101	-0.5043554938767777	-0.1892161466537207	1.5595005159515212	-0.4867546339626329	-0.19393315916587323	1.8249127732586647	-0.5782322189735344	-0.19039678691134976	1.6899451001379526	-0.5728333595636376	-0.1694116292957548	1.555967771325327	-0.5786199367935361	-0.23695041469427902	1.5352753563327106	-0.5743343989853783	-0.21872810144731528	1.5244283931957863	-0.6194303474565744	-0.15145099099999285	1.5384899913391041	-0.5582881571605781	-1.7001849767903743	1.891416432651798	1.0812528544377806	-0.25930344252613147	2.0529095187471813	-0.6051888393836562	-1.860309400655619	1.8940737644902819	1.3687089384021986	-0.25395475068486906	1.9398196168223447	-0.44866892706997036	-0.281908739346455	1.958941592316875	-0.5490312639106587	-1.5367582595804805	1.8897744173687328	0.8078393740176595	-0.18166854524759685	1.910191381005295	-0.6768285702199707	-1.3192683993731995	1.806894618843177	0.4879506752319774
